<svg width="97" height="81" viewBox="0 0 97 81" fill="none" xmlns="http://www.w3.org/2000/svg">
<path d="M23.8277 9C24.7052 9 25.4364 9.70137 25.7064 10.6242C27.0902 15.3861 31.1738 18.8438 36 18.8438C40.8262 18.8438 44.9098 15.3861 46.2936 10.6242C46.5636 9.70137 47.2948 9 48.1723 9H49.5898C52.121 9 54.5622 9.97207 56.5084 11.7439L70.7056 24.6762C71.4481 25.3529 71.9094 26.3373 71.9881 27.3955C72.0669 28.4537 71.7519 29.4996 71.1106 30.2994L64.8107 38.1744C63.5283 39.7863 61.3008 39.9709 59.7933 38.6051L53.9997 33.3264V64.125C53.9997 68.4686 50.771 72 46.7998 72H25.2002C21.229 72 18.0003 68.4686 18.0003 64.125V33.3264L12.2067 38.6051C10.7104 39.9709 8.48298 39.7863 7.18925 38.1744L0.889365 30.2994C0.248127 29.4996 -0.0668679 28.4537 0.0118807 27.3955C0.0906293 26.3373 0.551871 25.3529 1.29436 24.6762L15.4916 11.7439C17.4378 9.97207 19.879 9 22.4102 9H23.8277Z" fill="black"/>
<path d="M29.1667 32.1875C27.4184 32.1875 26 33.7832 26 35.75V38.125C26 39.435 26.9467 40.5 28.1111 40.5H42.8889C44.0533 40.5 45 39.435 45 38.125V35.75C45 33.7832 43.5816 32.1875 41.8333 32.1875H29.1667ZM33.3889 34.5625C34.263 34.5625 34.9722 35.3604 34.9722 36.3438V38.4219C34.9722 38.9154 34.6193 39.3125 34.1806 39.3125H32.5972C32.1585 39.3125 31.8056 38.9154 31.8056 38.4219V36.3438C31.8056 35.3604 32.5148 34.5625 33.3889 34.5625ZM36.0278 36.3438C36.0278 35.3604 36.737 34.5625 37.6111 34.5625C38.4852 34.5625 39.1944 35.3604 39.1944 36.3438V38.4219C39.1944 38.9154 38.8415 39.3125 38.4028 39.3125H36.8194C36.3807 39.3125 36.0278 38.9154 36.0278 38.4219V36.3438ZM29.1667 35.75C30.0408 35.75 30.75 36.5479 30.75 37.5312V38.4219C30.75 38.9154 30.397 39.3125 29.9583 39.3125H28.375C27.9363 39.3125 27.5833 38.9154 27.5833 38.4219V37.5312C27.5833 36.5479 28.2925 35.75 29.1667 35.75ZM40.25 37.5312C40.25 36.5479 40.9592 35.75 41.8333 35.75C42.7075 35.75 43.4167 36.5479 43.4167 37.5312V38.4219C43.4167 38.9154 43.0637 39.3125 42.625 39.3125H41.0417C40.603 39.3125 40.25 38.9154 40.25 38.4219V37.5312ZM29.1667 48.8125H41.8333C43.5816 48.8125 45 47.2168 45 45.25V44.0625C45 42.7525 44.0533 41.6875 42.8889 41.6875H28.1111C26.9467 41.6875 26 42.7525 26 44.0625V45.25C26 47.2168 27.4184 48.8125 29.1667 48.8125ZM29.1667 46.4375C28.2925 46.4375 27.5833 45.6396 27.5833 44.6562V43.7656C27.5833 43.2721 27.9363 42.875 28.375 42.875H29.9583C30.397 42.875 30.75 43.2721 30.75 43.7656V44.6562C30.75 45.6396 30.0408 46.4375 29.1667 46.4375ZM31.8056 44.6562V43.7656C31.8056 43.2721 32.1585 42.875 32.5972 42.875H34.1806C34.6193 42.875 34.9722 43.2721 34.9722 43.7656V44.6562C34.9722 45.6396 34.263 46.4375 33.3889 46.4375C32.5148 46.4375 31.8056 45.6396 31.8056 44.6562ZM37.6111 46.4375C36.737 46.4375 36.0278 45.6396 36.0278 44.6562V43.7656C36.0278 43.2721 36.3807 42.875 36.8194 42.875H38.4028C38.8415 42.875 39.1944 43.2721 39.1944 43.7656V44.6562C39.1944 45.6396 38.4852 46.4375 37.6111 46.4375ZM40.25 44.6562V43.7656C40.25 43.2721 40.603 42.875 41.0417 42.875H42.625C43.0637 42.875 43.4167 43.2721 43.4167 43.7656V44.6562C43.4167 45.6396 42.7075 46.4375 41.8333 46.4375C40.9592 46.4375 40.25 45.6396 40.25 44.6562Z" fill="#069AA3" fill-opacity="0.992157"/>
</svg>
